<svg width="75" height="75" viewBox="0 0 75 75" fill="none" xmlns="http://www.w3.org/2000/svg">
<path d="M75 36.875V3.75001C74.9989 2.75579 74.6034 1.80262 73.9004 1.0996C73.1974 0.396576 72.2442 0.0011295 71.25 1.28874e-05H57.2859C56.7931 -0.00128305 56.3048 0.0951721 55.8495 0.283797C55.3941 0.472423 54.9807 0.749474 54.6331 1.09892L51.0989 4.63329C50.983 4.74993 50.8451 4.84241 50.6932 4.90536C50.5414 4.96831 50.3785 5.00048 50.2141 5.00001H26.25C25.2558 5.00113 24.3026 5.39658 23.5996 6.0996C22.8966 6.80262 22.5011 7.75579 22.5 8.75001V11.25H18.75C18.4185 11.25 18.1005 11.3817 17.8661 11.6161C17.6317 11.8506 17.5 12.1685 17.5 12.5V20H11.1922C10.5794 19.9999 9.9759 20.15 9.43457 20.4372C8.89324 20.7244 8.43057 21.1399 8.08707 21.6474C7.74357 22.1549 7.52971 22.7388 7.46422 23.3481C7.39872 23.9574 7.4836 24.5735 7.71141 25.1424L8.34 26.7142L10.6611 25.7858L10.0323 24.2133C9.95638 24.0237 9.92806 23.8185 9.94986 23.6154C9.97167 23.4124 10.0429 23.2178 10.1574 23.0487C10.2719 22.8796 10.4261 22.7412 10.6065 22.6455C10.7869 22.5499 10.988 22.4999 11.1922 22.5H54.9609C55.4606 22.4998 55.9488 22.6494 56.3625 22.9297C56.7762 23.21 57.0962 23.6079 57.2812 24.072L68.1541 51.25H42.5V53.75H71.25C72.2442 53.7489 73.1974 53.3534 73.9004 52.6504C74.6034 51.9474 74.9988 50.9942 75 50V39.8438H72.5V50C72.4995 50.3316 72.3676 50.6494 72.133 50.8837C71.8985 51.1181 71.5806 51.2498 71.2491 51.25C71.13 51.2499 71.0138 51.2141 70.9153 51.1472C70.8168 51.0804 70.7406 50.9856 70.6966 50.875L69.6798 48.3336C69.8861 48.105 70.0002 47.8079 70 47.5V12.5C70 12.1685 69.8683 11.8506 69.6339 11.6161C69.3995 11.3817 69.0815 11.25 68.75 11.25H25V8.75001C25.0004 8.41861 25.1322 8.10088 25.3665 7.86654C25.6009 7.6322 25.9186 7.50039 26.25 7.50001H50.2141C50.7069 7.50131 51.1952 7.40485 51.6505 7.21623C52.1059 7.0276 52.5193 6.75055 52.8669 6.40111L56.4011 2.86673C56.517 2.75009 56.6549 2.65762 56.8068 2.59467C56.9586 2.53172 57.1215 2.49955 57.2859 2.50001H71.25C71.5814 2.50039 71.8991 2.6322 72.1335 2.86654C72.3678 3.10088 72.4996 3.41861 72.5 3.75001V36.875H75ZM67.5 42.8842L63.75 33.5103V17.5H61.25V27.2611L59.6028 23.1436C59.1914 22.1176 58.452 21.2565 57.5 20.6947V17.5H55V20C54.987 20 54.9739 20 54.9609 20H51.25V17.5H48.75V20H45V17.5H42.5V20H38.75V17.5H36.25V20H32.5V17.5H30V20H26.25V17.5H23.75V20H20V13.75H67.5V42.8842ZM67.5 7.50001V5.00001H70V7.50001H67.5ZM62.5 7.50001V5.00001H65V7.50001H62.5ZM57.5 7.50001V5.00001H60V7.50001H57.5ZM37.5 68.75H40V71.25C39.9989 72.2442 39.6034 73.1974 38.9004 73.9004C38.1974 74.6035 37.2442 74.9989 36.25 75H3.75C2.75578 74.9989 1.8026 74.6035 1.09958 73.9004C0.396563 73.1974 0.00111661 72.2442 0 71.25V56.25H2.5V71.25C2.50037 71.5814 2.63219 71.8991 2.86653 72.1335C3.10087 72.3678 3.41859 72.4996 3.75 72.5H36.25C36.5814 72.4996 36.8991 72.3678 37.1335 72.1335C37.3678 71.8991 37.4996 71.5814 37.5 71.25V68.75ZM40 51.25V66.25H37.5V51.25C37.4996 50.9186 37.3678 50.6009 37.1335 50.3665C36.8991 50.1322 36.5814 50.0004 36.25 50H3.75C3.41859 50.0004 3.10087 50.1322 2.86653 50.3665C2.63219 50.6009 2.50037 50.9186 2.5 51.25V53.75H0V51.25C0.00111661 50.2558 0.396563 49.3026 1.09958 48.5996C1.8026 47.8966 2.75578 47.5011 3.75 47.5H26.25V40C26.25 38.3424 25.5915 36.7527 24.4194 35.5806C23.2473 34.4085 21.6576 33.75 20 33.75C18.3424 33.75 16.7527 34.4085 15.5806 35.5806C14.4085 36.7527 13.75 38.3424 13.75 40V43.75C13.75 44.0815 13.6183 44.3995 13.3839 44.6339C13.1495 44.8683 12.8315 45 12.5 45H6.25C5.91848 45 5.60054 44.8683 5.36612 44.6339C5.1317 44.3995 5 44.0815 5 43.75V40C4.99862 37.3134 5.71939 34.6758 7.08687 32.3633L9.23781 33.6378C8.09872 35.5644 7.4985 37.7619 7.5 40V42.5H11.25V40C11.25 37.6794 12.1719 35.4538 13.8128 33.8128C15.4538 32.1719 17.6794 31.25 20 31.25C22.3206 31.25 24.5462 32.1719 26.1872 33.8128C27.8281 35.4538 28.75 37.6794 28.75 40V47.5H32.5V40C32.5002 37.4256 31.7055 34.914 30.2245 32.8083C28.7435 30.7025 26.6485 29.1054 24.2257 28.2351C21.8029 27.3648 19.1705 27.2638 16.6881 27.9459C14.2058 28.628 11.9945 30.0599 10.3566 32.0459L8.42906 30.4541C10.3948 28.0712 13.0483 26.3533 16.027 25.5351C19.0057 24.7169 22.1644 24.8384 25.0716 25.8828C27.9787 26.9272 30.4925 28.8437 32.2695 31.3704C34.0465 33.8972 35.0001 36.911 35 40V47.5H36.25C37.2442 47.5011 38.1974 47.8966 38.9004 48.5996C39.6034 49.3026 39.9989 50.2558 40 51.25ZM21.25 66.25V63.535C22.084 63.2401 22.7869 62.6599 23.2345 61.8969C23.6821 61.1339 23.8456 60.2372 23.696 59.3653C23.5464 58.4935 23.0934 57.7026 22.4171 57.1324C21.7407 56.5622 20.8846 56.2495 20 56.2495C19.1154 56.2495 18.2593 56.5622 17.5829 57.1324C16.9066 57.7026 16.4536 58.4935 16.304 59.3653C16.1544 60.2372 16.3179 61.1339 16.7655 61.8969C17.2131 62.6599 17.916 63.2401 18.75 63.535V66.25H21.25ZM20 58.75C20.2472 58.75 20.4889 58.8233 20.6945 58.9607C20.9 59.098 21.0602 59.2933 21.1549 59.5217C21.2495 59.7501 21.2742 60.0014 21.226 60.2439C21.1777 60.4864 21.0587 60.7091 20.8839 60.8839C20.7091 61.0587 20.4863 61.1778 20.2439 61.226C20.0014 61.2742 19.7501 61.2495 19.5216 61.1549C19.2932 61.0603 19.098 60.9 18.9607 60.6945C18.8233 60.4889 18.75 60.2472 18.75 60C18.7504 59.6686 18.8822 59.3509 19.1165 59.1165C19.3509 58.8822 19.6686 58.7504 20 58.75Z" fill="url(#paint0_linear)"/>
<defs>
<linearGradient id="paint0_linear" x1="-31.6313" y1="34.2597" x2="32.9243" y2="101.538" gradientUnits="userSpaceOnUse">
<stop stop-color="#FBDA61"/>
<stop offset="1" stop-color="#F76B1C"/>
</linearGradient>
</defs>
</svg>
