<svg width="125" height="118" viewBox="0 0 125 118" fill="none" xmlns="http://www.w3.org/2000/svg">
<path fill-rule="evenodd" clip-rule="evenodd" d="M93.7361 21.7783C93.3937 21.4912 93.0372 21.2046 92.6935 20.903C85.7324 14.7947 77.7056 10.8365 68.619 9.07645C63.3101 8.04796 57.9643 7.92236 52.5838 8.57557C34.613 10.7575 18.4805 22.8194 11.5224 40.5273C9.71635 45.1238 8.63995 49.887 8.20232 54.8129C7.68976 60.5837 8.21584 66.2544 9.62606 71.8508C9.81923 72.6176 9.75259 73.2023 9.36656 73.8706C7.96064 76.3056 6.60446 78.7689 5.23201 81.223C5.15523 81.3599 5.07447 81.488 4.90003 81.4769C4.72222 81.4659 4.66478 81.3231 4.60551 81.1775C3.29172 77.9502 2.2746 74.6297 1.56979 71.22C0.718499 67.1017 0.237877 62.9352 0.326323 58.726C0.69577 41.1507 7.4189 26.4653 20.59 14.8264C28.6705 7.68588 38.1349 3.27218 48.7426 1.37151C53.2856 0.557683 57.8725 0.304014 62.4975 0.59085C72.9402 1.23853 82.5182 4.43242 91.2643 10.1529C93.2355 11.4424 95.1123 12.8603 96.9079 14.3854C97.1911 14.6258 97.4515 14.8522 97.2273 15.2855C96.1469 17.3732 95.0779 19.4667 93.999 21.555C93.9579 21.6343 93.8544 21.6806 93.7361 21.7783Z" fill="#353434"/>
<path fill-rule="evenodd" clip-rule="evenodd" d="M92.3988 97.8252C93.7065 100.134 95.3179 101.967 97.2664 103.49C94.4518 106.977 84.1715 112.771 76.699 115.037C65.3328 118.483 53.9272 118.575 42.5321 115.205C32.8252 112.334 24.4676 107.202 17.3827 100.025C17.5446 99.5975 17.8366 99.7022 18.0648 99.701C19.9068 99.6917 21.7491 99.7068 23.5912 99.6921C25.3042 99.6782 24.9166 99.8883 25.7163 98.4937C25.8413 98.2757 25.9153 98.0159 26.2888 97.8752C35.8078 105.725 46.7536 109.917 59.2064 109.94C71.673 109.964 82.6443 105.824 92.3988 97.8252Z" fill="#353434"/>
<path d="M101.747 16.4466L92.754 34.1352H101.423V78.0822H118.169V16.4466H101.747Z" fill="url(#paint0_linear)"/>
<path d="M124.909 87.9597C124.969 88.4752 125 88.9964 125 89.527C125 89.9774 124.977 90.4244 124.933 90.8627C124.556 94.635 122.602 97.9486 119.743 100.147C119.065 100.668 118.336 101.128 117.563 101.514L115.442 88.5075H104.081L101.959 101.514C101.183 101.127 100.45 100.665 99.7691 100.141C99.3163 99.793 98.8886 99.4181 98.4856 99.0182C96.3358 96.885 94.9049 94.0361 94.5899 90.8629C94.5449 90.4242 94.5223 89.9772 94.5223 89.5268C94.5223 88.9961 94.5532 88.4726 94.615 87.9584C95.1272 83.5847 97.757 79.8503 101.461 77.8019L118.054 77.802C119.152 78.4081 120.156 79.164 121.038 80.039C123.134 82.1191 124.549 84.8808 124.909 87.9597Z" fill="url(#paint1_linear)"/>
<path d="M46.7713 16.4466L2.46545 95.5017H22.3799L27.4351 85.4429L78.2249 64.2538L81.3556 69.8431L96.6864 39.6359H64.4275L68.5981 47.078L35.5549 69.2849L46.7713 46.9626L51.2999 55.9753L63.5914 46.4582L46.7713 16.4466Z" fill="url(#paint2_linear)"/>
<path d="M41.0651 81.4999L76.0448 68.6794L91.0782 95.5018H71.1626L62.5702 78.4008L41.0651 81.4999Z" fill="url(#paint3_linear)"/>
<defs>
<linearGradient id="paint0_linear" x1="79.1543" y1="55.3052" x2="129.24" y2="75.0915" gradientUnits="userSpaceOnUse">
<stop stop-color="#FBDA61"/>
<stop offset="1" stop-color="#F76B1C"/>
</linearGradient>
<linearGradient id="paint1_linear" x1="79.1543" y1="55.3052" x2="129.24" y2="75.0915" gradientUnits="userSpaceOnUse">
<stop stop-color="#FBDA61"/>
<stop offset="1" stop-color="#F76B1C"/>
</linearGradient>
<linearGradient id="paint2_linear" x1="49.21" y1="-14.8929" x2="119.948" y2="69.8364" gradientUnits="userSpaceOnUse">
<stop stop-color="#73CCD8"/>
<stop offset="1" stop-color="#2B6B9F"/>
</linearGradient>
<linearGradient id="paint3_linear" x1="49.21" y1="-14.8929" x2="119.948" y2="69.8364" gradientUnits="userSpaceOnUse">
<stop stop-color="#73CCD8"/>
<stop offset="1" stop-color="#2B6B9F"/>
</linearGradient>
</defs>
</svg>
