<svg width="511" height="488" viewBox="0 0 511 488" fill="none" xmlns="http://www.w3.org/2000/svg">
<path fill-rule="evenodd" clip-rule="evenodd" d="M429.612 98.569C428.038 97.2483 426.398 95.9304 424.818 94.5433C392.808 66.4479 355.898 48.2417 314.115 40.1465C289.703 35.4159 265.121 34.8382 240.38 37.8426C157.743 47.8787 83.5605 103.358 51.5649 184.806C43.2599 205.947 38.3102 227.856 36.2979 250.513C33.941 277.056 36.3601 303.138 42.8448 328.879C43.733 332.406 43.4266 335.095 41.6515 338.169C35.1865 349.369 28.9504 360.699 22.6394 371.987C22.2863 372.617 21.9149 373.206 21.1128 373.155C20.2952 373.104 20.0311 372.447 19.7585 371.778C13.7172 356.933 9.04014 341.661 5.7992 325.978C1.88465 307.035 -0.325413 287.872 0.0812929 268.511C1.78014 187.673 32.6955 120.127 93.2608 66.5934C130.418 33.7505 173.938 13.4495 222.716 4.70735C243.606 0.964131 264.699 -0.202624 285.966 1.11669C333.986 4.09573 378.028 18.7861 418.246 45.0974C427.31 51.0287 435.94 57.5504 444.197 64.565C445.499 65.671 446.697 66.7121 445.666 68.7052C440.698 78.3076 435.782 87.9369 430.821 97.5421C430.632 97.9065 430.156 98.1198 429.612 98.569Z" fill="#E8E8E8"/>
<path fill-rule="evenodd" clip-rule="evenodd" d="M423.463 448.349C429.476 458.968 436.886 467.399 445.846 474.405C432.903 490.443 385.631 517.094 351.27 527.515C299.004 543.363 246.557 543.79 194.158 528.289C149.522 515.081 111.091 491.477 78.5126 458.466C79.2568 456.501 80.5998 456.982 81.6491 456.977C90.1193 456.934 98.5909 457.004 107.061 456.936C114.938 456.872 113.156 457.838 116.833 451.424C117.408 450.421 117.748 449.226 119.466 448.579C163.237 484.687 213.57 503.968 270.832 504.074C328.158 504.181 378.608 485.14 423.463 448.349Z" fill="#E8E8E8"/>
<path d="M466.447 74.0454L425.096 155.405H464.961V357.54H541.963V74.0454H466.447Z" fill="#E8E8E8"/>
<path d="M572.954 402.972C573.232 405.343 573.374 407.741 573.374 410.181C573.375 412.253 573.271 414.309 573.065 416.325C571.332 433.676 562.348 448.916 549.2 459.026C546.085 461.424 542.729 463.538 539.178 465.318L529.423 405.492H477.181L467.426 465.318C463.857 463.534 460.485 461.413 457.354 459C455.272 457.4 453.305 455.676 451.452 453.836C441.566 444.025 434.987 430.921 433.538 416.326C433.331 414.308 433.227 412.252 433.227 410.18C433.227 407.739 433.369 405.331 433.653 402.967C436.009 382.85 448.101 365.673 465.135 356.251L541.434 356.252C546.483 359.04 551.101 362.516 555.156 366.541C564.795 376.108 571.298 388.811 572.954 402.972Z" fill="#E8E8E8"/>
<path d="M213.651 74.0454L9.91741 437.662H101.491L124.737 391.396L358.286 293.936L372.682 319.645L443.178 180.705H294.841L314.018 214.936L162.074 317.077L213.651 214.405L234.475 255.859L290.996 212.085L213.651 74.0454Z" fill="#E8E8E8"/>
<path d="M187.412 373.26L348.261 314.292L417.39 437.662H325.811L286.3 359.006L187.412 373.26Z" fill="#E8E8E8"/>
</svg>
