<svg width="70" height="70" viewBox="0 0 70 70" fill="none" xmlns="http://www.w3.org/2000/svg">
<path d="M59.7447 10.2471C46.0743 -3.41912 23.9134 -3.41584 10.2472 10.2547C-3.4191 23.9252 -3.41582 46.0859 10.2547 59.7522C23.9252 73.4184 46.0859 73.4152 59.7522 59.7447C66.3155 53.1793 70.0017 44.2755 69.9997 34.9921C69.9978 25.7103 66.309 16.8094 59.7447 10.2471ZM53.006 48.7543C53.0057 48.7545 53.0055 48.7547 53.0053 48.7549C53.0038 48.7565 53.0013 48.7554 53.0013 48.7533C53.0013 48.751 52.9986 48.7499 52.9971 48.7515L51.2279 50.5089C48.9345 52.8313 45.5943 53.7869 42.4195 53.0289C39.221 52.1728 36.1804 50.81 33.4129 48.9923C30.8418 47.3491 28.4591 45.4282 26.3079 43.2639C24.3286 41.2991 22.5505 39.1417 20.9995 36.8239C19.3031 34.3299 17.9604 31.613 17.0095 28.7505C15.9195 25.3878 16.8228 21.6979 19.3429 19.2189L21.4195 17.1423C21.9969 16.5623 22.9351 16.5603 23.5149 17.1376C23.5164 17.1391 23.518 17.1406 23.5196 17.1423L30.0762 23.6989C30.6561 24.2763 30.6582 25.2144 30.0808 25.7943C30.0793 25.7958 30.0778 25.7973 30.0762 25.7989L26.2262 29.6489C25.1215 30.7416 24.9826 32.4779 25.8995 33.7323C27.292 35.6433 28.833 37.4416 30.5079 39.1107C32.3754 40.9862 34.4055 42.6923 36.5746 44.209C37.8279 45.0832 39.527 44.9358 40.6112 43.859L44.3328 40.079C44.9102 39.4991 45.8483 39.497 46.4281 40.0744C46.4296 40.0759 46.4311 40.0774 46.4328 40.079L53.0012 46.659C53.5813 47.2363 53.5833 48.1743 53.006 48.7543Z" fill="url(#paint0_linear)"/>
<defs>
<linearGradient id="paint0_linear" x1="-29.5229" y1="31.9754" x2="30.729" y2="94.7688" gradientUnits="userSpaceOnUse">
<stop stop-color="#FBDA61"/>
<stop offset="1" stop-color="#F76B1C"/>
</linearGradient>
</defs>
</svg>
