<svg width="81" height="80" viewBox="0 0 81 80" fill="none" xmlns="http://www.w3.org/2000/svg">
<path d="M25.0812 12.6961C25.7366 12.6961 26.2679 12.1714 26.2679 11.5242C26.2679 10.877 25.7366 10.3524 25.0812 10.3524C24.4258 10.3524 23.8945 10.877 23.8945 11.5242C23.8945 12.1714 24.4258 12.6961 25.0812 12.6961Z" fill="url(#paint0_linear)"/>
<path d="M30.5004 12.6961C31.1558 12.6961 31.687 12.1714 31.687 11.5242C31.687 10.877 31.1558 10.3524 30.5004 10.3524C29.845 10.3524 29.3137 10.877 29.3137 11.5242C29.3137 12.1714 29.845 12.6961 30.5004 12.6961Z" fill="url(#paint1_linear)"/>
<path d="M35.9195 12.6961C36.5749 12.6961 37.1062 12.1714 37.1062 11.5242C37.1062 10.877 36.5749 10.3524 35.9195 10.3524C35.2642 10.3524 34.7329 10.877 34.7329 11.5242C34.7329 12.1714 35.2642 12.6961 35.9195 12.6961Z" fill="url(#paint2_linear)"/>
<path d="M42.6045 73.8281C43.26 73.8281 43.7912 73.3034 43.7912 72.6562C43.7912 72.0091 43.26 71.4844 42.6045 71.4844H37.3831C36.7276 71.4844 36.1964 72.0091 36.1964 72.6562C36.1964 73.3034 36.7276 73.8281 37.3831 73.8281H42.6045Z" fill="url(#paint3_linear)"/>
<path d="M75.687 33.54H69.17V5.99391C69.1699 2.68891 66.447 0 63.1002 0H16.8874C13.5405 0 10.8176 2.68891 10.8176 5.99391V14.9328C10.8176 15.58 11.3488 16.1047 12.0043 16.1047C12.6598 16.1047 13.191 15.58 13.191 14.9328V5.99391C13.191 3.98125 14.8492 2.34375 16.8874 2.34375H63.1002C65.1385 2.34375 66.7965 3.98125 66.7965 5.99391V33.54H62.6809V9.81969C62.6809 7.93844 61.1311 6.40797 59.2261 6.40797H20.7614C18.8563 6.40797 17.3064 7.93844 17.3064 9.81969V19.2484H4.61633C2.34597 19.2484 0.499023 21.0725 0.499023 23.3144V37.1714C0.499023 39.4134 2.34613 41.2373 4.61633 41.2373H17.3064V64.8747C17.3064 66.7561 18.8563 68.2866 20.7614 68.2866H59.2263C61.1313 68.2866 62.6811 66.7561 62.6811 64.8747V60.1862H66.7967V74.0059C66.7967 76.0186 65.1386 77.6561 63.1004 77.6561H16.8874C14.8492 77.6561 13.1911 76.0187 13.1911 74.0059V45.5469C13.1911 44.8997 12.66 44.375 12.0044 44.375C11.3489 44.375 10.8178 44.8997 10.8178 45.5469V74.0061C10.8178 77.3111 13.5406 80 16.8874 80H63.1002C66.447 80 69.1699 77.3112 69.1699 74.0061V60.1864H75.687C78.3404 60.1864 80.499 58.0545 80.499 55.4342V38.2922C80.4992 35.6719 78.3404 33.54 75.687 33.54ZM18.4931 38.8937L18.491 38.8936H4.61633C3.65464 38.8936 2.87238 38.1209 2.87238 37.1714V23.3144C2.87238 22.3647 3.65464 21.5922 4.61633 21.5922H27.5696C28.5313 21.5922 29.3135 22.3648 29.3135 23.3144V37.1714C29.3135 38.1211 28.5313 38.8936 27.5696 38.8936C26.2782 38.8936 25.2274 39.9312 25.2274 41.2066V45.0606L20.2202 39.6469C19.7658 39.1555 19.1173 38.8937 18.4931 38.8937ZM49.2966 65.943H20.7614C20.1649 65.943 19.6797 65.4639 19.6797 64.8748V42.5378L23.9035 47.1047C24.4948 47.7442 25.4116 47.965 26.243 47.6464C27.0679 47.3305 27.6008 46.5619 27.6008 45.6883V41.2375C29.8569 41.2209 31.6869 39.4033 31.6869 37.1716V23.3145C31.6869 21.0725 29.8398 19.2486 27.5696 19.2486H19.6797V16.6406H49.6463C50.3018 16.6406 50.833 16.1159 50.833 15.4688C50.833 14.8216 50.3018 14.2969 49.6463 14.2969H19.6797V9.81969C19.6797 9.23078 20.1649 8.75172 20.7614 8.75172H59.2263C59.8226 8.75172 60.3077 9.23078 60.3077 9.81969V14.2969H55.1941C54.5386 14.2969 54.0074 14.8216 54.0074 15.4688C54.0074 16.1159 54.5386 16.6406 55.1941 16.6406H60.3077V33.54H49.0539C46.4003 33.54 44.2417 35.6719 44.2417 38.2922V55.4342C44.2417 58.0545 46.4005 60.1864 49.0539 60.1864C49.1877 60.1864 49.2966 60.2939 49.2966 60.4261V65.943ZM60.3076 64.8748C60.3076 65.4639 59.8225 65.943 59.2261 65.943H54.8536L60.1054 60.2647C60.1514 60.215 60.2168 60.1866 60.2848 60.1866H60.3077L60.3076 64.8748ZM78.1258 55.4342C78.1258 56.7622 77.0319 57.8427 75.6871 57.8427H60.2848C59.5517 57.8427 58.8476 58.1492 58.353 58.6839L51.67 65.9094V60.4263C51.67 59.0017 50.4964 57.8428 49.0539 57.8428C47.7091 57.8428 46.615 56.7623 46.615 55.4344V38.2922C46.615 36.9642 47.7091 35.8838 49.0539 35.8838H75.687C77.0317 35.8838 78.1258 36.9642 78.1258 38.2922V55.4342Z" fill="url(#paint4_linear)"/>
<path d="M72.9101 41.9023H52.4201C51.7646 41.9023 51.2334 42.427 51.2334 43.0742C51.2334 43.7214 51.7646 44.2461 52.4201 44.2461H72.9101C73.5656 44.2461 74.0968 43.7214 74.0968 43.0742C74.0968 42.427 73.5655 41.9023 72.9101 41.9023Z" fill="url(#paint5_linear)"/>
<path d="M72.9101 49.4805H52.4201C51.7646 49.4805 51.2334 50.0051 51.2334 50.6523C51.2334 51.2995 51.7646 51.8242 52.4201 51.8242H72.9101C73.5656 51.8242 74.0968 51.2995 74.0968 50.6523C74.0968 50.0051 73.5655 49.4805 72.9101 49.4805Z" fill="url(#paint6_linear)"/>
<path d="M7.66847 28.125H24.5174C25.173 28.125 25.7041 27.6003 25.7041 26.9531C25.7041 26.3059 25.173 25.7812 24.5174 25.7812H7.66847C7.01295 25.7812 6.48179 26.3059 6.48179 26.9531C6.48179 27.6003 7.01295 28.125 7.66847 28.125Z" fill="url(#paint7_linear)"/>
<path d="M25.7041 33.1288C25.7041 32.4816 25.173 31.9569 24.5174 31.9569H7.66847C7.01295 31.9569 6.48179 32.4816 6.48179 33.1288C6.48179 33.7759 7.01295 34.3006 7.66847 34.3006H24.5174C25.173 34.3006 25.7041 33.7759 25.7041 33.1288Z" fill="url(#paint8_linear)"/>
<defs>
<linearGradient id="paint0_linear" x1="40.8097" y1="-31.714" x2="-31.9421" y2="41.4008" gradientUnits="userSpaceOnUse">
<stop stop-color="#73CCD8"/>
<stop offset="1" stop-color="#2B6B9F"/>
</linearGradient>
<linearGradient id="paint1_linear" x1="40.8097" y1="-31.714" x2="-31.9421" y2="41.4008" gradientUnits="userSpaceOnUse">
<stop stop-color="#73CCD8"/>
<stop offset="1" stop-color="#2B6B9F"/>
</linearGradient>
<linearGradient id="paint2_linear" x1="40.8097" y1="-31.714" x2="-31.9421" y2="41.4008" gradientUnits="userSpaceOnUse">
<stop stop-color="#73CCD8"/>
<stop offset="1" stop-color="#2B6B9F"/>
</linearGradient>
<linearGradient id="paint3_linear" x1="40.8097" y1="-31.714" x2="-31.9421" y2="41.4008" gradientUnits="userSpaceOnUse">
<stop stop-color="#73CCD8"/>
<stop offset="1" stop-color="#2B6B9F"/>
</linearGradient>
<linearGradient id="paint4_linear" x1="40.8097" y1="-31.714" x2="-31.9421" y2="41.4008" gradientUnits="userSpaceOnUse">
<stop stop-color="#73CCD8"/>
<stop offset="1" stop-color="#2B6B9F"/>
</linearGradient>
<linearGradient id="paint5_linear" x1="40.8097" y1="-31.714" x2="-31.9421" y2="41.4008" gradientUnits="userSpaceOnUse">
<stop stop-color="#73CCD8"/>
<stop offset="1" stop-color="#2B6B9F"/>
</linearGradient>
<linearGradient id="paint6_linear" x1="40.8097" y1="-31.714" x2="-31.9421" y2="41.4008" gradientUnits="userSpaceOnUse">
<stop stop-color="#73CCD8"/>
<stop offset="1" stop-color="#2B6B9F"/>
</linearGradient>
<linearGradient id="paint7_linear" x1="40.8097" y1="-31.714" x2="-31.9421" y2="41.4008" gradientUnits="userSpaceOnUse">
<stop stop-color="#73CCD8"/>
<stop offset="1" stop-color="#2B6B9F"/>
</linearGradient>
<linearGradient id="paint8_linear" x1="40.8097" y1="-31.714" x2="-31.9421" y2="41.4008" gradientUnits="userSpaceOnUse">
<stop stop-color="#73CCD8"/>
<stop offset="1" stop-color="#2B6B9F"/>
</linearGradient>
</defs>
</svg>
